<svg xmlns="http://www.w3.org/2000/svg" version="1.1" xmlns:xlink="http://www.w3.org/1999/xlink" xmlns:svgjs="http://svgjs.dev/svgjs" width="2000" height="1500" viewBox="0 0 2000 1500"><rect width="2000" height="1500" fill="#f9f7f4"></rect><g transform="matrix(0.3266906239790918,0,0,0.3266906239790918,672.0527355286267,248.3870967741933)"><svg viewBox="0 0 162 248" data-background-color="#f9f7f4" preserveAspectRatio="xMidYMid meet" height="3061" width="2000" xmlns="http://www.w3.org/2000/svg" xmlns:xlink="http://www.w3.org/1999/xlink"><g id="tight-bounds" transform="matrix(1,0,0,1,0.3115727002967503,0.4000000000000057)"><svg viewBox="0 0 161.3768545994065 247.2" height="247.2" width="161.3768545994065"><g><svg viewBox="0 0 161.3768545994065 247.2" height="247.2" width="161.3768545994065"><g><svg viewBox="0 0 161.3768545994065 247.2" height="247.2" width="161.3768545994065"><g id="textblocktransform"><svg viewBox="0 0 161.3768545994065 247.2" height="247.2" width="161.3768545994065" id="textblock"><g><svg viewBox="0 0 161.3768545994065 247.2" height="247.2" width="161.3768545994065"><g transform="matrix(1,0,0,1,0,0)"><svg width="161.3768545994065" viewBox="0.75 -33.7 22 33.7" height="247.2" data-palette-color="#e1b906"><path d="M9.55 0L0.75-2.4 2.3-8.2 2.3-26 0.75-26.4 2.7-33.7 11.5-31.3 9.85-25.1 9.85-19.85 10.85-21.6 13.55-20 13.55-27.5 21.1-30.55 21.1-20.1 16.55-18.25 21.1-15.6 21.1-7.8 22.75-7.35 20.8-0.05 12-2.45 13.55-8.25 13.55-11.3 9.85-13.45 9.85-7.75 11.5-7.3 9.55 0ZM5.6-28.5L5.6-5.45 4.15-5.85 3.9-4.85 8-3.75 8.25-4.75 6.6-5.2 6.6-28.25 8.1-27.85 8.35-28.8 4.2-29.95 3.95-28.95 5.6-28.5ZM17.85-26.7L16.85-26.3 16.85-20.9 17.85-21.3 17.85-26.7ZM16.85-13.15L16.85-5.5 15.4-5.9 15.15-4.9 19.3-3.75 19.55-4.8 17.85-5.25 17.85-13.7 11.3-17.55 10.8-16.7 16.85-13.15Z" opacity="1" transform="matrix(1,0,0,1,0,0)" fill="#e1b906" class="wordmark-text-0" data-fill-palette-color="primary" id="text-0"></path></svg></g></svg></g></svg></g></svg></g><g></g></svg></g><defs></defs></svg><rect width="161.3768545994065" height="247.2" fill="none" stroke="none" visibility="hidden"></rect></g></svg></g></svg>